# xmcd
#
# Track frame offsets:
#	150
#	12288
#	24480
#	37648
#	49192
#	68757
#	80475
#	93518
#	108718
#	127391
#	142199
#	157483
#	168130
#	179429
#	190413
#
# Disc length: 2631 seconds
#
# Revision: 1
# Processed by: cddbd v1.5.2PL0 Copyright (c) Steve Scherf et al.
# Submitted via: audiograbber 1.83.01
#
DISCID=d50a450f
DTITLE=Hank Williams III - Hank Williams III vol 1
DYEAR=1900
DGENRE=audio
TTITLE0=Honky Tonk Girls
TTITLE1=My Drinking Problem
TTITLE2=I'm a Long Gone Daddy
TTITLE3=Moanin' the Blues
TTITLE4=Thunder Storms and Neon Signs
TTITLE5=Smoke and Wine
TTITLE6=If the Shoe Fits
TTITLE7=Mississippi Mud
TTITLE8=Whiskey, Weed, and Women
TTITLE9=Devil's Daughter
TTITLE10=Low Down
TTITLE11=Things You Do to Me
TTITLE12=I'll Never Get Out of This World Alive
TTITLE13=Never Again Will I Knock on Your Door
TTITLE14=Where the Soul of Man Never Dies
EXTD=
EXTT0=
EXTT1=
EXTT2=
EXTT3=
EXTT4=
EXTT5=
EXTT6=
EXTT7=
EXTT8=
EXTT9=
EXTT10=
EXTT11=
EXTT12=
EXTT13=
EXTT14=
PLAYORDER=
